<svg xmlns="http://www.w3.org/2000/svg" version="1.1" xmlns:xlink="http://www.w3.org/1999/xlink" xmlns:svgjs="http://svgjs.com/svgjs" width="103.76" height="298.09"><svg xmlns="http://www.w3.org/2000/svg" version="1.1" xmlns:xlink="http://www.w3.org/1999/xlink" xmlns:svgjs="http://svgjs.com/svgjs" width="103.76" height="298.09" class="class-4mszwd5ww"><svg xmlns="http://www.w3.org/2000/svg" viewBox="0 0 103.76 298.09" class="class-4mszwd5ww">
    <g data-name="Layer 2">
        <g data-name="Layer 1">
            <path d="M10.22 288.2l-2.82 2.52.8 2.43s4.48 2.11 6.86 3.34c4.29 2.24 11.13 2 15.32 0a1.44 1.44 0 00.55-1.1v-.76z" class="fill-color-0"></path>
            <path d="M18.2 279.85a8.53 8.53 0 002.3 8.54 26.11 26.11 0 0010 5.58.64.64 0 01.05 1.22 37.65 37.65 0 01-4.08 1.18 18.8 18.8 0 01-10.19-.78 6 6 0 01-.89-.41l-8-4.46S7 287.83 10 282.39s5.24-9.39 5.24-9.39z" class="fill-hair-shadow"></path>
            <path d="M10.22 281.87a95.06 95.06 0 004.23-8.87l4.55 4.48s-1.09 4.88-1.11 5.19c-2.55.67-5.26 2.24-7.67-.8z" class="fill-color-0"></path>
            <path d="M17.7 123.58s13.18 85.66 8.88 99.67C21.24 240.64 8 274.34 8 274.34c.2.68 7.14 6.05 11.39 4.7 0 0 21.45-52.25 22-66s0-82.92 0-82.92z" class="fill-color-1-shadow"></path>
            <path d="M61.78 293.6l.4 1.54s6.58.61 14 1c0 0 9 .46 11.17-1.31v-1.45z" class="fill-color-0"></path>
            <path d="M68.29 275.94s1.66 9.15 5.8 11c3.42 1.52 10.57 4.89 12.93 6a.53.53 0 010 1c-1.11.54-3.81 1.2-10.33.89-10.44-.5-14.92-1.16-14.92-1.16s-1.11-4.74-.11-8.21 1.09-10.22 1.09-13.51 5.54 3.99 5.54 3.99z" class="fill-hair-shadow"></path>
            <path d="M69.7 280.92c-.34-1.26-1.41-7.67-1.41-7.67s-2.3.47-3.56-1l-2-.28c0 2.25 0 6-.39 9.28 2.35 1.08 4.81.81 7.36-.33z" class="fill-color-0"></path>
            <path d="M36.85 152.38s16.21 63.13 18.25 73.83c6.35 33.22 5.38 49.49 5.38 49.49s7.83 1.09 11.82-.71c0 0-10.35-68.19-12.06-81.3s-6.85-55.64-6.56-70.11-2.57-22.68-2.57-22.68H21.44S16 113 17.7 123.58" class="fill-color-1-shadow"></path>
            <path d="M22.58 42s5.64-7.77 14.75-.82c7.57 31.86 14.15 62.66 14 94.86L43 139.33l-2.26-7.41-.15 12.29-14-3.88z" class="fill-color-0"></path>
            <path d="M43 58.52l-3.88-14-1.28.48a12.42 12.42 0 00-.51-3.84 14.11 14.11 0 00-5-2.56l1.9 2.48.18 3.24a2.42 2.42 0 01-2.06 2.56 11.25 11.25 0 01-2.82-.07v-4.25l-1-2.61-4.74.79a9.41 9.41 0 00-.77.75c-.12.24-.27.53-.43.88l-2.06 8.38c.83 0 0-1.16 1.15-1.33a72.27 72.27 0 019.56-.36c2 0 4.77.31 5.29 2.28l1.64 11.47a27.4 27.4 0 01-2.92.65L26.69 65l5.87 72.89 7.49-23.78.72 17.86L43 142.33l8.3-5.28z" class="fill-color-0-shadow"></path>
            <path d="M77.58 97.33l9.64 2.07a7.16 7.16 0 014.86-2.46A14.49 14.49 0 0098 95.25s-1.24 4-2.92 4.15 5.73-.92 7.27-2.71 2.3.57 0 2.71-5.12 6-11.77 6-8.48-2.71-8.48-2.71l-6.58-1" class="fill-skin"></path>
            <path d="M103 98.63a21.54 21.54 0 01-14.75 4.2c-.4-2.09 1.72-5.44 1.72-5.44a8.17 8.17 0 00-2.76 2l-4.69-1-1.82 4.07 1.35.21s1.84 2.71 8.48 2.71 9.47-3.83 11.77-6a6.17 6.17 0 00.7-.75z" class="fill-skin-shadow"></path>
            <path d="M8.1 46.84s8.72 37 9.6 51.32c1.3 21.18-6.91 76.68-6.91 76.68 7.13 4 15.11 8.34 23.58 7.16l-.85-85.17a44.73 44.73 0 00-.81-8l-9.34-48z" class="fill-white-shadow"></path>
            <path d="M82.63 98.17l3.14.82-1.15 8.27-2.78-.76.79-8.33z" class="fill-color-0-shadow"></path>
            <path d="M43 49l5.06 2.36s4.1 14.51 9.62 30.6C61.89 94.18 84 98 84 98l-2 13.45s-21-8.07-30.79-18" class="fill-white-shadow"></path>
            <path d="M40.56 42.56l-3.23-1.37 7.92 47.38 10 91.64c4.23-4.34 3.87-5 5.71-8.55 0 0-11.74-92.57-11.79-110.17-.01-15.49-8.61-18.93-8.61-18.93z" class="fill-white-shadow"></path>
            <path d="M25.79 41.11v-9h8.45v9a6.85 6.85 0 01-8.45 0z" class="fill-skin"></path>
            <path d="M38.08 41.49l-3.68-2.17c3.66 5.21 7.49 30.74 11.3 53.47l-.7-31.3-2-3 2.67.78zM34.37 182l-.85-85.23a44.22 44.22 0 00-.8-7.87c-4.12-21.17-6.93-39.23-6.93-49.58l-4.17 2.08L19 61.49l5.35-2-2.29 6.6 7.18 19.78a37.62 37.62 0 012.25 12.82L27 181.75a20 20 0 007.37.25z" class="fill-white"></path>
            <path d="M18.87 92.46C22.69 88 26.75 82.73 26.54 81c-.39-3.18 1-11.22 4.35-14.78a17.22 17.22 0 010 6.65c-.72 3.77.31 4.71.31 4.71s1.08-5.58 1.92-4.68-.12 6.94 0 10.1-6.29 6.65-6.29 6.65-2.63 3.93-6.14 8.66" class="fill-skin"></path>
            <path d="M21.52 87.54l2.06-2.1s3.53.93 3.71 8.63l-2.71 2.64z" class="fill-color-0-shadow"></path>
            <path d="M21.92 86.48c3.25 1 3.54 8.14 4.51 12.44C19 104 11.92 108 4.07 114.06c0 0-11.44-25.91 4-67.22l6.69 3.44 1.64 15.15c-5 8.57-7.34 21.09-5.63 30.8z" class="fill-white-shadow"></path>
            <path d="M43.48 9.82s1.06 1.93 0 7.49c-.93 4.81 2.07 5.61 2.07 5.61a1.55 1.55 0 01-.51 2 1.41 1.41 0 00-.1 1.94L44.1 28a1.44 1.44 0 01-.45 1.73s-1.24.72-.56 2.84c0 0-.1 4.09-4.85 2.51s-12.15-3.24-12.15-3.24-12.39-5.12-7.88-16.6S39.42 2.49 43.48 9.82z" class="fill-skin"></path>
            <path d="M42.47 20.33l-1.68.44-.14.78a3.58 3.58 0 01-2.65-.82c1.53-.87 4.47-.4 4.47-.4z" class="fill-hair-shadow"></path>
            <path d="M34.24 37.25V32.1l-8.45-1.79v10.8a7.19 7.19 0 003.75 1.45c.78-4 3.01-5.09 4.7-5.31z" class="fill-skin-shadow"></path>
            <path d="M42.14 34.78C28.61 29.65 37 11.56 37 11.56S40.27 7 27.9 8.85c-5.32.8-8.57 6.55-10.56 12.85 1 7 8.75 10.17 8.75 10.17s7.41 1.67 12.15 3.24c2.04.68 3.22.31 3.9-.33z" class="fill-skin-shadow"></path>
            <path d="M34.37 11.28s-1.73 5.09-4.35 8c-.63.69-1.3 4.85-2 5.19 0 0 1.07-7.49-3.42-7.2-2.58.16-4.56 5.7-2 7.41a8 8 0 013.21 3.71s1.36 5.61-3.21 7.08c0 0 1.89-3.37-1.19-5.08S10.75 23 13.13 12.7c0 0 .77-4 4.08-5.42 0 0 5.81-9.93 17.6-6.6C43 3 46.14 13.85 43.46 17.31z" class="fill-hair-shadow"></path>
            <path d="M12.83 65c-9.89 12.36-5.65 39.51-5.65 39.51l17.7-13.55c-.59-2.19-1.46-4-3-4.43l-11.08 9.7c-1.32-7.48-.24-16.63 2.62-24.36zM54.49 117.68l-2.78 29.85 3.58 32.68c4.23-4.34 3.87-5 5.71-8.55 0 0-3-22.05-6.51-53.98zM57.71 82c-3.09-9-5.71-17.56-7.47-23.31l-1.92-6.77a15.49 15.49 0 00-5.78-8.44 13.57 13.57 0 00-5.21-2.29l1.82 6.93s5.25-1.85 9.12 10.36c4.11 13.12 9.47 32.84 15.27 36.77a82.47 82.47 0 0019.54 9.21L84 98s-22.11-3.82-26.29-16z" class="fill-white"></path>
            <path d="M72.3 275S62 206.8 60.24 193.69c-.26-2-.6-4.72-1-7.92s-5.57 5.48-4.15 12S61 228.5 61 228.5l6 47.49a14.87 14.87 0 005.3-.99zM41.66 189.91s-7.19 2.5-7.29 7.84-.47 18.77 0 19.62c.37.65 3.9-1.65 6.7-1.3a23.27 23.27 0 00.34-3c.17-3.96.24-12.73.25-23.16z" class="fill-color-1"></path>
            <path d="M29.43 150.34l-8.19-5.85 8.19 10.13v-4.28z" class="fill-white"></path>
            <path d="M34.81.68a15 15 0 00-12.23 1.41c10.31-3 14 1.21 14.69 5.3a10.33 10.33 0 01-.77 5.3l7 4.62C46.14 13.85 43 3 34.81.68z" class="fill-hair"></path>
            <path d="M32.57 5.57a35.06 35.06 0 01-1.16 11.86 31.66 31.66 0 003-6.15s.87-4.14-1.84-5.71z" class="fill-hair"></path>
            <path d="M38.8 14.21c2-5.28 0-8.21 0-8.21s3.67 3 1.84 9.43zM42.14 16.43a4.8 4.8 0 00.33-2.35 5.41 5.41 0 01.19 2.7z" class="fill-hair-shadow"></path>
        </g>
    </g>
</svg></svg><style>.class-4mszwd5ww .fill-skin {
  fill: #f1d9b1;
}
.class-4mszwd5ww .fill-skin-shadow {
  fill: #ebc78d;
}
.class-4mszwd5ww .fill-hair {
  fill: #1e1d20;
}
.class-4mszwd5ww .fill-hair-shadow {
  fill: #1b1a1d;
}
.class-4mszwd5ww .fill-white {
  fill: #f0f0f0;
}
.class-4mszwd5ww .fill-white-shadow {
  fill: #d8d8d8;
}
.class-4mszwd5ww .fill-white-shadow-extra {
  fill: #c2c2c2;
}
.class-4mszwd5ww .stop-color-white {
  stop-color: #f0f0f0;
}
.class-4mszwd5ww .stop-color-white-shadow {
  stop-color: #d8d8d8;
}
.class-4mszwd5ww .stop-color-white-shadow-extra {
  stop-color: #c2c2c2;
}
.class-4mszwd5ww .stroke-white {
  stroke: #f0f0f0;
}
.class-4mszwd5ww .stroke-white-shadow {
  stroke: #d8d8d8;
}
.class-4mszwd5ww .stroke-white-shadow-extra {
  stroke: #b5b5b5;
}
.class-4mszwd5ww .fill-yellow {
  fill: #eaea00;
}
.class-4mszwd5ww .fill-yellow-shadow {
  fill: #dada00;
}
.class-4mszwd5ww .fill-yellow-shadow-extra {
  fill: #cbcb00;
}
.class-4mszwd5ww .stop-color-yellow {
  stop-color: #eaea00;
}
.class-4mszwd5ww .stop-color-yellow-shadow {
  stop-color: #dada00;
}
.class-4mszwd5ww .stop-color-yellow-shadow-extra {
  stop-color: #cbcb00;
}
.class-4mszwd5ww .fill-green {
  fill: #3a7152;
}
.class-4mszwd5ww .fill-green-shadow {
  fill: #34664a;
}
.class-4mszwd5ww .fill-green-shadow-extra {
  fill: #2f5c42;
}
.class-4mszwd5ww .stop-color-green {
  stop-color: #3a7152;
}
.class-4mszwd5ww .stop-color-green-shadow {
  stop-color: #34664a;
}
.class-4mszwd5ww .stop-color-green-shadow-extra {
  stop-color: #2f5c42;
}
.class-4mszwd5ww .stroke-green {
  stroke: #3a7152;
}
.class-4mszwd5ww .stroke-green-shadow {
  stroke: #34664a;
}
.class-4mszwd5ww .stroke-green-shadow-extra {
  stroke: #2c553e;
}
.class-4mszwd5ww .fill-red {
  fill: #ce3827;
}
.class-4mszwd5ww .fill-red-shadow {
  fill: #b93223;
}
.class-4mszwd5ww .fill-red-shadow-extra {
  fill: #a62d1f;
}
.class-4mszwd5ww .stop-color-red {
  stop-color: #ce3827;
}
.class-4mszwd5ww .stop-color-red-shadow {
  stop-color: #b93223;
}
.class-4mszwd5ww .stop-color-red-shadow-extra {
  stop-color: #a62d1f;
}
.class-4mszwd5ww .fill-orange {
  fill: #f09c25;
}
.class-4mszwd5ww .fill-orange-shadow {
  fill: #e98f10;
}
.class-4mszwd5ww .fill-orange-shadow-extra {
  fill: #d1800e;
}
.class-4mszwd5ww .stop-color-orange {
  stop-color: #f09c25;
}
.class-4mszwd5ww .stop-color-orange-shadow {
  stop-color: #e98f10;
}
.class-4mszwd5ww .stop-color-orange-shadow-extra {
  stop-color: #d1800e;
}
.class-4mszwd5ww .fill-blue {
  fill: #3b7ded;
}
.class-4mszwd5ww .fill-blue-shadow {
  fill: #1f6bea;
}
.class-4mszwd5ww .fill-blue-shadow-extra {
  fill: #145eda;
}
.class-4mszwd5ww .stop-color-blue {
  stop-color: #3b7ded;
}
.class-4mszwd5ww .stop-color-blue-shadow {
  stop-color: #1f6bea;
}
.class-4mszwd5ww .stop-color-blue-shadow-extra {
  stop-color: #145eda;
}
.class-4mszwd5ww .fill-color-0 {
  fill: #1e1d20;
}
.class-4mszwd5ww .fill-color-0-shadow {
  fill: #1b1a1d;
}
.class-4mszwd5ww .fill-color-0-shadow-extra {
  fill: #171618;
}
.class-4mszwd5ww .stop-color-color-0 {
  stop-color: #1e1d20;
}
.class-4mszwd5ww .fill-color-1 {
  fill: #77844b;
}
.class-4mszwd5ww .fill-color-1-shadow {
  fill: #6b7743;
}
.class-4mszwd5ww .fill-color-1-shadow-extra {
  fill: #5a6438;
}
.class-4mszwd5ww .fill-body-detail {
  fill: #ffffff;
}
.class-4mszwd5ww .stroke-color-0 {
  stroke: #1e1d20;
}
.class-4mszwd5ww .stroke-color-0-shadow {
  stroke: #1b1a1d;
}
.class-4mszwd5ww .stroke-color-0-shadow-extra {
  stroke: #171618;
}
.class-4mszwd5ww .stroke-color-1 {
  stroke: #77844b;
}
.class-4mszwd5ww .stroke-color-1-shadow {
  stroke: #6b7743;
}
.class-4mszwd5ww .stroke-color-1-shadow-extra {
  stroke: #5a6438;
}</style></svg>