<svg xmlns="http://www.w3.org/2000/svg" version="1.1" xmlns:xlink="http://www.w3.org/1999/xlink" xmlns:svgjs="http://svgjs.com/svgjs" width="148.85" height="319.46"><svg xmlns="http://www.w3.org/2000/svg" version="1.1" xmlns:xlink="http://www.w3.org/1999/xlink" xmlns:svgjs="http://svgjs.com/svgjs" width="148.85" height="319.46" class="class-xjpisilq1"><svg xmlns="http://www.w3.org/2000/svg" viewBox="0 0 148.85 319.46" class="class-xjpisilq1">
    <g data-name="Layer 2">
        <g data-name="Layer 1">
            <path d="M81.5 154.13c.21 15.42-9.3 26.41-9.3 26.41" stroke-width="3" fill="none" stroke-linecap="round" stroke-miterlimit="10" class="stroke-color-0-shadow"></path>
            <path fill="none" stroke-linecap="round" stroke-miterlimit="10" d="M70.2 182.47l2.68-2.69" class="stroke-color-0-shadow"></path>
            <path d="M84.25 152.55c-5.14 14.54-17.86 21.56-17.86 21.56" stroke-width="3" fill="none" stroke-linecap="round" stroke-miterlimit="10" class="stroke-color-0-shadow"></path>
            <path fill="none" stroke-linecap="round" stroke-miterlimit="10" d="M63.84 175.23l3.45-1.59" class="stroke-color-0-shadow"></path>
            <path d="M124.39 293.81s-1.81 10.5 1.81 12.81 18.89 7.61 22.12 8.86-8.86 2.94-21.57 2.17-11.7-.88-11.7-.88.53-4.43 1.69-10.54a105.57 105.57 0 001.15-15.49zM51.31 240h-13.5c-2.32 0-2 .6-3.44 10.65-1 7-3.56 21-.64 21.87 0 0 3.2-5.93 7.43-13.46s2.2-10.18 14.36-12.14-4.21-6.92-4.21-6.92z" class="fill-white"></path>
            <path d="M33.73 272.54h-.08a2.32 2.32 0 01-2.27-1.79 27.15 27.15 0 010-8.73c.82-7 1.75-17.24 2.94-20.55a1.5 1.5 0 011.11-1.09l1.44-.27z" class="fill-white"></path>
            <path d="M44.3 252.57c-3.51-4.46-3.16-10.31-2.86-12.53h-3.63c-2.32 0-2 .6-3.44 10.65-1 7-3.56 21-.64 21.87 0 0 3.2-5.93 7.43-13.46 1.55-2.78 2.26-4.88 3.14-6.53z" class="fill-color-2-shadow"></path>
            <path d="M77.31 146.79s-5.78 15.85 0 25.16 27.56 38.5 25.83 45.4S68.07 239.27 51.31 240v8.35s52.74-5.56 60.83-22.06-8.83-82.71-8.83-82.71z" class="fill-color-1-shadow"></path>
            <path d="M115.44 153.29l18.48 73.93-9.24 72.91h-7.51s-.58-33.11 3.47-61.55-14-33.32-31.66-77.71c0 0-6.16-14.86 3.63-26.88 5.77-7.08 16.47 3.58 16.47 3.58z" class="fill-color-1-shadow"></path>
            <path d="M98.3 63.1s30.43-5.89 33.51-9.44c2.51-2.89 1.53-26.49 1.08-35.08a4.06 4.06 0 00-2.89-3.71c-1.82-.51-4-1.41-5.09-2.88a11.72 11.72 0 01-1.7-3.2.4.4 0 01.6-.45c1.77 1.19 5.77 3.53 5.92.38.19-4-5.83-7.12-5.83-7.12l-2.22-.91s-1.53-.56 6.19-.69c4.24-.07 9.82 7.18 9.25 11.61s6 40.63 5.08 44.1-12.78 11.89-33.2 17.4S98.3 63.1 98.3 63.1z" class="fill-skin"></path>
            <path d="M142.2 55.71s-10.88 6.83-20.55 6.69c-4-.06-3.57 3.38-.89 6.89 13.17-5.04 20.69-10.85 21.44-13.58zM66.67 71s-14.78 6.9-23.44 32.87-28.63 37.91-28.63 37.91-11.07 3.58-12.27 6.67S-1 162.06.52 160.4s5.54-7.4 7.66-7.4c1.48 0 .23 2.36-.66 3.77a.32.32 0 00.43.44 18.17 18.17 0 004.47-3.63c2.31-2.7 3.65-4.81 4.42-4.81s17.91-12.73 31-32.94 21.56-25.2 21.56-25.2z" class="fill-skin-shadow"></path>
            <path d="M51.31 111.74l-3.56 5.88a10 10 0 01-8.57-5.42l4-8.33z" class="fill-color-0-shadow"></path>
            <path d="M60.92 76.86C33.84 98.65 41.71 108 41.71 108l7.76 6.07c6.32 4.24 27.65-29.47 27.65-29.47" class="fill-color-0-shadow"></path>
            <path d="M127.6 55.22l-2.53 1c-5-3.38-27.31 7-35.21 10.84-13.13 1.66-30.53 4.81-28.94 9.81 10.8 33.86 9.54 69.26 8.68 81.43a4.58 4.58 0 004.29 4.88c18.19 1.16 35.65-5.12 44-8.71a6 6 0 003.32-7.42C117.49 136 95 88.06 110.5 80.58c19.3-5.39 19.05-13.39 19-14.25l1.95-1a10.64 10.64 0 00-3.85-10.11z" class="fill-color-0"></path>
            <path d="M88.39 33.35A10.88 10.88 0 0192.61 40c1 4.66 2 4.48 2.59 6 0 0 .25.37-.34 1.71A23.14 23.14 0 0196 54.44s-3.38 3.2-6.61 3.92-1-25.01-1-25.01z" class="fill-skin"></path>
            <path d="M96 54.4c-2.26.53-5.74.91-8.23-.77.21 2.94.68 4.94 1.62 4.73 3.23-.72 6.61-3.92 6.61-3.92z" class="fill-skin-shadow"></path>
            <path d="M148.81 316v1.49s-2.32 2.26-17.53 1.93c-12.49-.28-16.25-1.21-16.25-1.21v-1.45z" class="fill-white"></path>
            <path d="M148.32 315.48c-3.09-1.2-17.17-6.09-21.57-8.54-4.44 4.29-8.59 4.36-10.83 3.95-.59 3.57-.87 5.88-.87 5.88s-1 .11 11.7.88 24.79-.92 21.57-2.17z" class="fill-color-2-shadow"></path>
            <path d="M91.38 226.83c-11.68 6.33-29.3 12.71-40.07 13.17v8.35s22.56-2.38 40.43-8.64a49.3 49.3 0 00-.36-12.88zM119.77 170.61c-2.67 3.38-5.87 8.71-4.74 13.83 1.85 8.37 13.41 34.66 13.12 40.44-.25 5-5.25 39.14-1 55.76l6.77-53.42z" class="fill-color-1"></path>
            <path d="M131.48 61.16l-1.45.66c-.69.32-1.5.9-1.79.19l-.55-1.37a.37.37 0 00-.68 0c-1 1.77-5.22 4-10.22 5.89-1.9.68-12.23 3.65-14.54 4.5C91.85 74.82 90 71 90 71s-13.54 2.21-29 6c10.77 33.83 9.51 69.17 8.65 81.33a4.58 4.58 0 004.29 4.88c18.19 1.16 35.65-5.12 44-8.71a6 6 0 003.61-5.94 96.64 96.64 0 01-29.66 7S90 126.67 90 114.42 105.77 100 105.77 100c-1.45-9.22-.69-16.8 4.73-19.42a56.11 56.11 0 008.47-3c.15-.06.28-.13.42-.2.41-.19.8-.39 1.18-.58l.43-.23.69-.38.25-.15c.41-.23.79-.47 1.16-.71l.29-.19c.39-.26.77-.53 1.11-.79h.07l.51-.4.2-.17c.27-.23.53-.45.76-.68a1.29 1.29 0 00.17-.16c.13-.12.26-.25.38-.38a1.29 1.29 0 00.16-.17q.28-.3.54-.6l.17-.21.25-.33q.17-.21.3-.42l.18-.28.16-.26c.06-.09.11-.18.16-.27l.21-.4v-.09a6.07 6.07 0 00.7-3.1l1.95-1a18 18 0 00.11-4.27z" class="fill-color-0-shadow"></path>
            <path d="M95.83 65.06c-1.32-8.9-8.91-17.21-5.3-25 4.11-8.94-1.32-9.57-1.32-9.57-3.68-5.56-12-5.44-18.76 1.15s3.17 29.94-10.16 34.86c0 0-7 2.74-8.81-1a4.88 4.88 0 003.33 5.06A17.42 17.42 0 0051 78.13c-.95 3.05-4.26 10.2-13.77 5.57 0 0 4.63 13.69 23.33 10.09.13 4.1 3.78 6.36 3.78 6.36a14 14 0 01.16-6.92c8.53.1 15.48-8.4 23.09-10.62 10.16-2.97 9.55-8.61 8.24-17.55z" class="fill-color-2-shadow"></path>
            <path d="M81.74 70.63s4.49 7.6-5.53 11.26c-19.11 7-11.89 18.26-11.89 18.26-.34-4.5 3.73-7 5.5-7.91 6.23-2.24 11.78-7.89 17.75-9.63 10.18-3 9.57-8.66 8.26-17.55s-8.91-17.21-5.3-25c4.11-8.94-1.32-9.57-1.32-9.57-3.68-5.57-12-5.44-18.77 1.15 2.21-1.82 5.4-2.77 9.92-1 0 0 5.2 1.93 5.2 5.59s-2.12 7.32 0 13.48S93.44 66.25 91.82 71c0 0-.3-9-10.18-15 0 0 10.24 7.64 4.59 22.22 0 .01.37-6.06-4.49-7.59zM129 308.06l-2.19 3.86s1.1.81 1.92 0a16.11 16.11 0 001.93-3.08zM132.27 309.41l-2.2 3.86s1.11.81 1.93 0a15.88 15.88 0 001.92-3.09zM43.14 255l-3.85-2.2s-.82 1.11 0 1.93a15.9 15.9 0 003.08 1.92zM41.55 258.2L37.7 256s-.82 1.11 0 1.92a16.11 16.11 0 003.08 1.93z" class="fill-color-2"></path>
            <path d="M91.82 36.35L91.34 38s-2.12-4-4.26-4.14a5.64 5.64 0 014.74 2.49z" class="fill-white"></path>
            <path d="M121.68.69l2.18.91s6 3.08 5.83 7.12c-.15 3.15-4.15.81-5.92-.38a.4.4 0 00-.6.45 11.72 11.72 0 001.7 3.2c1 1.47 3.27 2.37 5.09 2.88a4.06 4.06 0 012.93 3.71c0 .71.08 1.54.12 2.45.71-.8 1.43-1.72 1.45-4.34a25.47 25.47 0 00-.9-6.12A13 13 0 00121.68.69z" class="fill-skin-shadow"></path>
        </g>
    </g>
</svg></svg><style>.class-xjpisilq1 .fill-skin {
  fill: #f1d9b1;
}
.class-xjpisilq1 .fill-skin-shadow {
  fill: #ebc78d;
}
.class-xjpisilq1 .fill-hair {
  fill: #1e1d20;
}
.class-xjpisilq1 .fill-hair-shadow {
  fill: #1b1a1d;
}
.class-xjpisilq1 .fill-white {
  fill: #f0f0f0;
}
.class-xjpisilq1 .fill-white-shadow {
  fill: #d8d8d8;
}
.class-xjpisilq1 .fill-white-shadow-extra {
  fill: #c2c2c2;
}
.class-xjpisilq1 .stop-color-white {
  stop-color: #f0f0f0;
}
.class-xjpisilq1 .stop-color-white-shadow {
  stop-color: #d8d8d8;
}
.class-xjpisilq1 .stop-color-white-shadow-extra {
  stop-color: #c2c2c2;
}
.class-xjpisilq1 .stroke-white {
  stroke: #f0f0f0;
}
.class-xjpisilq1 .stroke-white-shadow {
  stroke: #d8d8d8;
}
.class-xjpisilq1 .stroke-white-shadow-extra {
  stroke: #b5b5b5;
}
.class-xjpisilq1 .fill-yellow {
  fill: #eaea00;
}
.class-xjpisilq1 .fill-yellow-shadow {
  fill: #dada00;
}
.class-xjpisilq1 .fill-yellow-shadow-extra {
  fill: #cbcb00;
}
.class-xjpisilq1 .stop-color-yellow {
  stop-color: #eaea00;
}
.class-xjpisilq1 .stop-color-yellow-shadow {
  stop-color: #dada00;
}
.class-xjpisilq1 .stop-color-yellow-shadow-extra {
  stop-color: #cbcb00;
}
.class-xjpisilq1 .fill-green {
  fill: #3a7152;
}
.class-xjpisilq1 .fill-green-shadow {
  fill: #34664a;
}
.class-xjpisilq1 .fill-green-shadow-extra {
  fill: #2f5c42;
}
.class-xjpisilq1 .stop-color-green {
  stop-color: #3a7152;
}
.class-xjpisilq1 .stop-color-green-shadow {
  stop-color: #34664a;
}
.class-xjpisilq1 .stop-color-green-shadow-extra {
  stop-color: #2f5c42;
}
.class-xjpisilq1 .stroke-green {
  stroke: #3a7152;
}
.class-xjpisilq1 .stroke-green-shadow {
  stroke: #34664a;
}
.class-xjpisilq1 .stroke-green-shadow-extra {
  stroke: #2c553e;
}
.class-xjpisilq1 .fill-red {
  fill: #ce3827;
}
.class-xjpisilq1 .fill-red-shadow {
  fill: #b93223;
}
.class-xjpisilq1 .fill-red-shadow-extra {
  fill: #a62d1f;
}
.class-xjpisilq1 .stop-color-red {
  stop-color: #ce3827;
}
.class-xjpisilq1 .stop-color-red-shadow {
  stop-color: #b93223;
}
.class-xjpisilq1 .stop-color-red-shadow-extra {
  stop-color: #a62d1f;
}
.class-xjpisilq1 .fill-orange {
  fill: #f09c25;
}
.class-xjpisilq1 .fill-orange-shadow {
  fill: #e98f10;
}
.class-xjpisilq1 .fill-orange-shadow-extra {
  fill: #d1800e;
}
.class-xjpisilq1 .stop-color-orange {
  stop-color: #f09c25;
}
.class-xjpisilq1 .stop-color-orange-shadow {
  stop-color: #e98f10;
}
.class-xjpisilq1 .stop-color-orange-shadow-extra {
  stop-color: #d1800e;
}
.class-xjpisilq1 .fill-blue {
  fill: #3b7ded;
}
.class-xjpisilq1 .fill-blue-shadow {
  fill: #1f6bea;
}
.class-xjpisilq1 .fill-blue-shadow-extra {
  fill: #145eda;
}
.class-xjpisilq1 .stop-color-blue {
  stop-color: #3b7ded;
}
.class-xjpisilq1 .stop-color-blue-shadow {
  stop-color: #1f6bea;
}
.class-xjpisilq1 .stop-color-blue-shadow-extra {
  stop-color: #145eda;
}
.class-xjpisilq1 .fill-color-0 {
  fill: #1e1d20;
}
.class-xjpisilq1 .fill-color-0-shadow {
  fill: #1b1a1d;
}
.class-xjpisilq1 .fill-color-0-shadow-extra {
  fill: #171618;
}
.class-xjpisilq1 .stop-color-color-0 {
  stop-color: #1e1d20;
}
.class-xjpisilq1 .fill-color-1 {
  fill: #3a7152;
}
.class-xjpisilq1 .fill-color-1-shadow {
  fill: #34664a;
}
.class-xjpisilq1 .fill-color-1-shadow-extra {
  fill: #2c553e;
}
.class-xjpisilq1 .fill-color-2 {
  fill: #77844b;
}
.class-xjpisilq1 .fill-color-2-shadow {
  fill: #6b7743;
}
.class-xjpisilq1 .fill-color-2-shadow-extra {
  fill: #5a6438;
}
.class-xjpisilq1 .fill-body-detail {
  fill: #ffffff;
}
.class-xjpisilq1 .stroke-color-0 {
  stroke: #1e1d20;
}
.class-xjpisilq1 .stroke-color-0-shadow {
  stroke: #1b1a1d;
}
.class-xjpisilq1 .stroke-color-0-shadow-extra {
  stroke: #171618;
}
.class-xjpisilq1 .stroke-color-1 {
  stroke: #3a7152;
}
.class-xjpisilq1 .stroke-color-1-shadow {
  stroke: #34664a;
}
.class-xjpisilq1 .stroke-color-1-shadow-extra {
  stroke: #2c553e;
}
.class-xjpisilq1 .stroke-color-2 {
  stroke: #77844b;
}
.class-xjpisilq1 .stroke-color-2-shadow {
  stroke: #6b7743;
}
.class-xjpisilq1 .stroke-color-2-shadow-extra {
  stroke: #5a6438;
}</style></svg>