<svg xmlns="http://www.w3.org/2000/svg" version="1.1" xmlns:xlink="http://www.w3.org/1999/xlink" xmlns:svgjs="http://svgjs.com/svgjs" width="158.67" height="203.41" transform="matrix(-1,0,0,1,0,0)"><svg xmlns="http://www.w3.org/2000/svg" version="1.1" xmlns:xlink="http://www.w3.org/1999/xlink" xmlns:svgjs="http://svgjs.com/svgjs" width="158.67" height="203.41" class="class-qqhf0jpht"><svg xmlns="http://www.w3.org/2000/svg" viewBox="0 0 158.67 203.41" class="class-qqhf0jpht">
    <g data-name="Layer 2">
        <g data-name="Layer 1">
            <path d="M24.58 191.55a13.65 13.65 0 003.5-7.63l1.37-16.27 8.71.73s-1.41 15-.28 22.34c0 0-5.58 12.28-13.3.83z" class="fill-body-detail"></path>
            <path d="M37.88 190.72l.44 9.63A2.51 2.51 0 0136.1 203a40.51 40.51 0 01-7.46.26l-.77-.39a6.17 6.17 0 00-3.51-.6 125 125 0 01-15.6 1.17 26.81 26.81 0 01-6-.94c-2.52-1-3.41-1.89-2.3-2.15 7.81-1.78 20.27-9.85 21.82-11.16a3.51 3.51 0 013.31-.65l.73.22a3.57 3.57 0 012.43 2.65l.06.26s5.43 2.96 9.07-.95z" class="fill-color-0-shadow"></path>
            <path d="M97.52 90.49L117 92.88s7.38 22.55-7.29 24.88c0 0-61.75-2.77-66.21 12.19s-4.14 52.86-4.14 52.86-1.18 2.87-6.91-4.77c-.67.48-1.94-55.88-1.05-61.77 0 0 4-6.1 21.06-7.79s40.96-4.06 45.06-17.99z" class="fill-color-1"></path>
            <path d="M117.61 95.21l-12.21 2.6a19 19 0 01-9.4 7.64c-7.39 3-28.23 7.45-35.65 6.21-2.72.31-5.38-3.43-7.89-3.18A54 54 0 0040.11 111a15.88 15.88 0 014.27 6.76s-7.91 2-8.23 6.8c-.24 3.7-4.54 39.8-6.44 58.37a25.3 25.3 0 009.62-.12S39 144.9 43.47 130s66.21-12.19 66.21-12.19c11.77-1.92 9.32-16.81 7.93-22.6z" class="fill-color-1-shadow"></path>
            <path d="M119.07 67.44C93.69 99.6 69.92 93.38 66.5 93.56s-3.26 1.92-3.26 1.92l-4.85-1.68c-7.87-2.72-13.78-.8-13.78-.8 5.23-5.77 16.53-4.57 16.53-4.57 37.4 4.41 52-32.76 52-32.76z" class="fill-skin"></path>
            <path d="M93.76 84.67a50 50 0 01-26.26 7c-7.35-.07-8.53.79-10.72 1.59.53.14 1.06.3 1.61.49l4.85 1.68s-.17-1.74 3.26-1.92c2.37-.12 14.46 2.8 30.08-6z" class="fill-skin-shadow"></path>
            <path d="M90.6 82.26a17.31 17.31 0 002.4 7.13c7.88-3.71 16.85-10.31 26-22l-5.53-11-.63-.31c-1.18 2.97-8 17.52-22.24 26.18z" class="fill-color-2-shadow"></path>
            <path d="M93.9 98.13c-11.17 6.48-36.75-15.17-55.25-3 0 0 2.68 10.86 5.7 13.08 6.41 4.71 14.83 12 16.14 13.91 0 0 12.8.36 11.25-9.51L63.8 108s26.49-2.23 30.1-9.87z" class="fill-color-1"></path>
            <path d="M93.9 96.58l-2.46 2.11s9 2.61 11.37 7.91l5.81-8.4z" class="fill-color-1-shadow"></path>
            <path d="M128 35.8c-7.82-2-4.52-4.28-11.12 1s-11 9.85-13.29 18.5c-.77 2.89-.27 9.25-.41 9.88-3 13.91-5.84 27.61-11.15 32.56 0 0 17.14 3.82 29.27 9.73 0 0-8.62-18.44 15.24-56.89 0 0 .09-.43.18-1.14a38.63 38.63 0 008-1.61c11.94-4.9 14-11.19 14-11.19-8.22-9.17-22.72-4.48-30.72-.84z" class="fill-color-2"></path>
            <path d="M104.52 57.24a12.65 12.65 0 0112 2.72l-1.46 4.76s-5.83-6.9-9.91-6.91z" class="fill-color-2-shadow"></path>
            <path d="M141.34 40.47l5.77-3.78s-25.23.44-35.68 31.94c-9.9 29.83-4.72 22.14-11.25 31.18a133.84 133.84 0 0121.07 7.62s-2.42-30.83 15.24-56.89c0 0 .09-.43.18-1.14 2-.25 3.81-.53 5.36-.86z" class="fill-color-2-shadow"></path>
            <path d="M129.14 35.28s-3.77-1.65-5.47-12.89-.7-5.25-.7-5.25L114.48 21s2.49 13.65 2.35 15.8-3.35 6.84-3.35 6.84z" class="fill-skin"></path>
            <path d="M123.67 22.39c-.38-2.52-.62-4.16-.77-5.21l-7.16 3.21c-.44.66-.87 1.25-.87 1.25v1.5c.53 3 1.45 8.41 1.81 11.52 1.54-.6 3.7-1.22 5-.55a11 11 0 013.22 3.4l4.21-2.23s-3.74-1.65-5.44-12.89z" class="fill-skin-shadow"></path>
            <path d="M125 25.09a.39.39 0 000 .11.7.7 0 010-.11zM100.49 8.22s-.91 4.76 1.36 8.45a4.08 4.08 0 01.41 3.31l-.64 1.88a1.35 1.35 0 001.43 1.79l.54-.06s0 2.11 1 2.57 0 1.09 1.09 1.87a6.53 6.53 0 011.32 2.46 3.93 3.93 0 004.19 2.51c2.32-.29 4.55-2.76 6.27-3.35l6.76-2.34s-3.28-8.79-.6-13.1 2.25-10.1-6.35-11.48-17.72 1.6-16.78 5.49z" class="fill-skin"></path>
            <path d="M121.31 12.79s-4.52-1.64-5.63.53a10.49 10.49 0 00-1 4.41 27.72 27.72 0 00.15 3.91v9.61a12 12 0 012.59-1.57l6.76-2.34s-2.53-6.8-1.32-11.37z" class="fill-skin-shadow"></path>
            <path d="M107 17.61c-.15-.39-1.59-.58-2-.43a.75.75 0 00-.44 1M123.78 23s-4.81-.72-3.85-3.35c.8-2.18 1-6.41-.78-6.66s-3.38.56-3.78 3.76S114.1 11 112 9.79c-1.35-.8-3.68-1.77-8.24 1s-9.1.21-11.14-3.13c0 0 2.79.85 7-2.07s9.4-7.36 15.75-4.85c0 0 5.65-1.38 9.08 4.75S122 16.34 123.78 23z" class="fill-color-0-shadow"></path>
            <path d="M115.66 21.8c-.16-.79-.21-8.27-.21-8.27l-2.16-2s.32 9.43.54 12.28a4.93 4.93 0 01-3.53 5c-1.47.39-2.2-3.55-3.06-5.11s-3.65-.07-3.65-.07a3.52 3.52 0 00.06 1.54c.76-.27 2.31-.6 2.72.42l.14.33a1.39 1.39 0 01-.69 1.77l-.48.06a19.86 19.86 0 010 4.48c0 2.47 4.91 2.69 6.69 1.75s6.31-3.54 6.31-3.54a22.67 22.67 0 01-2.68-8.64z" class="fill-color-0-shadow"></path>
            <path d="M141.34 40.47s4 1.27 3.37 7.32c0 0-27.24 11.13-27.87 12.88s-6.62 4.7-7.62 7.86 0 10.12 0 10.12-1.29 1.12-2.88-4.61-2.39-14 7.42-18.41c0 0 4.51-1.32 27.58-15.16z" class="fill-skin"></path>
            <path d="M141.64 48.62a18.66 18.66 0 003.07-.83c11.11-4.56 13.63-10.32 13.93-11.1-7.29.9-14.77 6-14.77 6a20.65 20.65 0 00-2.23 5.93z" class="fill-color-2-shadow"></path>
            <path d="M116.15 59.6s-.43 5.21-1.54 7.81L113.5 70s-1.27 0-.74-2.65a18.66 18.66 0 000-5.73z" class="fill-skin-shadow"></path>
            <path d="M116.84 60.67c.63-1.75 27.87-12.88 27.87-12.88a8.1 8.1 0 00-.84-5.09c-7.54 4.19-25.7 14.26-27 14.63-1.7.48-7.74 6.21-8.54 8.12-.4 1-1.65.79-2.79.37a21.12 21.12 0 00.84 8.22c1.59 5.73 2.88 4.61 2.88 4.61s-1-7 0-10.12 6.94-6.11 7.58-7.86z" class="fill-skin-shadow"></path>
            <path d="M38.65 95.17c3.26 8 13.42 14.68 22.75 21.52l-.19 6.68-16.86-13.12s-7.72-7.19-5.7-15.08zM54.56 99.25c-5.8-2.87 7.09.9 10.59 2 1.47.47 4.75 2 4.75 2l-5.17 1.28a5.12 5.12 0 01-4.41-1.18 28.34 28.34 0 00-5.76-4.1z" class="fill-color-1-shadow"></path>
            <path d="M72.15 114.31a3.89 3.89 0 00-3.31-4c-2.72-.41-6.52-.27-8.15 3.11a10.65 10.65 0 00.52 9.93s5.09 5.1 10.07-3.28a19.27 19.27 0 00.87-5.76z" class="fill-color-1-shadow"></path>
            <path d="M62.14 118.24s-.39-6.28 5.54-5.67L80 124.48l-6.54 4.06z" class="fill-body-detail"></path>
            <path d="M74.78 119.16l9.43 5-10 6.9a122.41 122.41 0 01-19.81 12.57s-1.3-1.51 3.18-6.22c11.48-12.06 9.57-14.2 9.57-14.2s.91-2.51 3.25-.58 4.38-3.47 4.38-3.47z" class="fill-color-0-shadow"></path>
            <path d="M54.4 143.63s-.75-4.77 14.56-12c7.42-3.5 15.75-11.52 16.42-5.26.51 4.75-6.59 3.91-12.44 9.53-13.66 13.1-18.54 7.73-18.54 7.73z" class="fill-skin-shadow"></path>
            <path d="M31.37 116.27s1.67 5.21 13 1.49l-10.51 65.58A15.68 15.68 0 0121.08 178c5.31-34.85 10.29-61.73 10.29-61.73z" class="fill-color-1-shadow"></path>
            <path d="M115.4.74c-6.35-2.51-11.51 1.93-15.75 4.85s-7 2.07-7 2.07 5.28 3.44 9.52.36S107-1.27 115.4.74M112.49 10.22s3.69-1.21 5.49 0l-4.69 1.28zM113.34 12.85l2.47-.65-2.42 1.88-.05-1.23z" class="fill-color-0"></path>
            <path d="M54.39 90.49s-6.15 3.66-3.76 3.5 3.93-2.67 7.51-2.13-3.75-1.37-3.75-1.37z" class="fill-skin"></path>
        </g>
    </g>
</svg></svg><style>.class-qqhf0jpht .fill-skin {
  fill: #f1d9b1;
}
.class-qqhf0jpht .fill-skin-shadow {
  fill: #ebc78d;
}
.class-qqhf0jpht .fill-hair {
  fill: #1e1d20;
}
.class-qqhf0jpht .fill-hair-shadow {
  fill: #1b1a1d;
}
.class-qqhf0jpht .fill-white {
  fill: #f0f0f0;
}
.class-qqhf0jpht .fill-white-shadow {
  fill: #d8d8d8;
}
.class-qqhf0jpht .fill-white-shadow-extra {
  fill: #c2c2c2;
}
.class-qqhf0jpht .stop-color-white {
  stop-color: #f0f0f0;
}
.class-qqhf0jpht .stop-color-white-shadow {
  stop-color: #d8d8d8;
}
.class-qqhf0jpht .stop-color-white-shadow-extra {
  stop-color: #c2c2c2;
}
.class-qqhf0jpht .stroke-white {
  stroke: #f0f0f0;
}
.class-qqhf0jpht .stroke-white-shadow {
  stroke: #d8d8d8;
}
.class-qqhf0jpht .stroke-white-shadow-extra {
  stroke: #b5b5b5;
}
.class-qqhf0jpht .fill-yellow {
  fill: #eaea00;
}
.class-qqhf0jpht .fill-yellow-shadow {
  fill: #dada00;
}
.class-qqhf0jpht .fill-yellow-shadow-extra {
  fill: #cbcb00;
}
.class-qqhf0jpht .stop-color-yellow {
  stop-color: #eaea00;
}
.class-qqhf0jpht .stop-color-yellow-shadow {
  stop-color: #dada00;
}
.class-qqhf0jpht .stop-color-yellow-shadow-extra {
  stop-color: #cbcb00;
}
.class-qqhf0jpht .fill-green {
  fill: #3a7152;
}
.class-qqhf0jpht .fill-green-shadow {
  fill: #34664a;
}
.class-qqhf0jpht .fill-green-shadow-extra {
  fill: #2f5c42;
}
.class-qqhf0jpht .stop-color-green {
  stop-color: #3a7152;
}
.class-qqhf0jpht .stop-color-green-shadow {
  stop-color: #34664a;
}
.class-qqhf0jpht .stop-color-green-shadow-extra {
  stop-color: #2f5c42;
}
.class-qqhf0jpht .stroke-green {
  stroke: #3a7152;
}
.class-qqhf0jpht .stroke-green-shadow {
  stroke: #34664a;
}
.class-qqhf0jpht .stroke-green-shadow-extra {
  stroke: #2c553e;
}
.class-qqhf0jpht .fill-red {
  fill: #ce3827;
}
.class-qqhf0jpht .fill-red-shadow {
  fill: #b93223;
}
.class-qqhf0jpht .fill-red-shadow-extra {
  fill: #a62d1f;
}
.class-qqhf0jpht .stop-color-red {
  stop-color: #ce3827;
}
.class-qqhf0jpht .stop-color-red-shadow {
  stop-color: #b93223;
}
.class-qqhf0jpht .stop-color-red-shadow-extra {
  stop-color: #a62d1f;
}
.class-qqhf0jpht .fill-orange {
  fill: #f09c25;
}
.class-qqhf0jpht .fill-orange-shadow {
  fill: #e98f10;
}
.class-qqhf0jpht .fill-orange-shadow-extra {
  fill: #d1800e;
}
.class-qqhf0jpht .stop-color-orange {
  stop-color: #f09c25;
}
.class-qqhf0jpht .stop-color-orange-shadow {
  stop-color: #e98f10;
}
.class-qqhf0jpht .stop-color-orange-shadow-extra {
  stop-color: #d1800e;
}
.class-qqhf0jpht .fill-blue {
  fill: #3b7ded;
}
.class-qqhf0jpht .fill-blue-shadow {
  fill: #1f6bea;
}
.class-qqhf0jpht .fill-blue-shadow-extra {
  fill: #145eda;
}
.class-qqhf0jpht .stop-color-blue {
  stop-color: #3b7ded;
}
.class-qqhf0jpht .stop-color-blue-shadow {
  stop-color: #1f6bea;
}
.class-qqhf0jpht .stop-color-blue-shadow-extra {
  stop-color: #145eda;
}
.class-qqhf0jpht .fill-color-0 {
  fill: #1e1d20;
}
.class-qqhf0jpht .fill-color-0-shadow {
  fill: #1b1a1d;
}
.class-qqhf0jpht .fill-color-0-shadow-extra {
  fill: #171618;
}
.class-qqhf0jpht .stop-color-color-0 {
  stop-color: #1e1d20;
}
.class-qqhf0jpht .fill-color-1 {
  fill: #77844b;
}
.class-qqhf0jpht .fill-color-1-shadow {
  fill: #6b7743;
}
.class-qqhf0jpht .fill-color-1-shadow-extra {
  fill: #5a6438;
}
.class-qqhf0jpht .fill-color-2 {
  fill: #1e1d20;
}
.class-qqhf0jpht .fill-color-2-shadow {
  fill: #1b1a1d;
}
.class-qqhf0jpht .fill-color-2-shadow-extra {
  fill: #171618;
}
.class-qqhf0jpht .fill-body-detail {
  fill: #ffffff;
}
.class-qqhf0jpht .stroke-color-0 {
  stroke: #1e1d20;
}
.class-qqhf0jpht .stroke-color-0-shadow {
  stroke: #1b1a1d;
}
.class-qqhf0jpht .stroke-color-0-shadow-extra {
  stroke: #171618;
}
.class-qqhf0jpht .stroke-color-1 {
  stroke: #77844b;
}
.class-qqhf0jpht .stroke-color-1-shadow {
  stroke: #6b7743;
}
.class-qqhf0jpht .stroke-color-1-shadow-extra {
  stroke: #5a6438;
}
.class-qqhf0jpht .stroke-color-2 {
  stroke: #1e1d20;
}
.class-qqhf0jpht .stroke-color-2-shadow {
  stroke: #1b1a1d;
}
.class-qqhf0jpht .stroke-color-2-shadow-extra {
  stroke: #171618;
}</style></svg>